Coordinates
version=1
nRows=26
nColumns=22
inDegrees=yes

Units are S.I. units (second, meters, Newtons, ...)
If the header above contains a line with 'inDegrees', this indicates whether rotational values are in degrees (yes) or radians (no).

endheader
time	pelvis_tilt	pelvis_list	pelvis_rotation	pelvis_tx	pelvis_ty	pelvis_tz	hip_flexion_r	hip_adduction_r	hip_rotation_r	knee_angle_r	ankle_angle_r	subtalar_angle_r	hip_flexion_l	hip_adduction_l	hip_rotation_l	knee_angle_l	ankle_angle_l	subtalar_angle_l	lumbar_extension	lumbar_bending	lumbar_rotation
      1.36000000	      1.15357620	     -2.55872551	     -4.88704879	     -1.31002463	      0.93575627	     -0.04110195	     -0.47180712	      3.68772847	     -0.79983443	    -12.43618452	      7.61007258	     -2.48220465	     -1.31052033	     -4.36183632	    -13.67098072	    -14.12141480	     11.39863822	      2.05280413	     -4.18770196	     -1.03038970	      0.82550730
      1.37000000	      1.18029740	     -2.53680132	     -4.89384103	     -1.30936805	      0.93564392	     -0.04074114	     -0.46367389	      3.69351087	     -0.78482606	    -12.59983479	      7.76038258	     -2.56810805	     -1.39703263	     -4.34183011	    -13.62304150	    -14.10113752	     11.44008000	      2.02544499	     -4.18745230	     -1.06020732	      0.83283277
      1.38000000	      1.20278442	     -2.49052865	     -4.89528024	     -1.30865188	      0.93552359	     -0.04035858	     -0.45591425	      3.67422901	     -0.77333082	    -12.76008685	      7.93528833	     -2.68295690	     -1.48648289	     -4.29592610	    -13.58969956	    -14.06454455	     11.45380186	      1.98112302	     -4.17600799	     -1.11749073	      0.81404018
      1.39000000	      1.20983995	     -2.44143382	     -4.87623394	     -1.30788484	      0.93538514	     -0.03996566	     -0.44231513	      3.65612461	     -0.77062301	    -12.90891243	      8.09727277	     -2.81139263	     -1.56299028	     -4.25144901	    -13.55653779	    -14.01593221	     11.45540861	      1.92853699	     -4.14485205	     -1.17742641	      0.79115486
      1.40000000	      1.19693947	     -2.38260458	     -4.84599979	     -1.30707568	      0.93521907	     -0.03954161	     -0.41228192	      3.63124144	     -0.78095046	    -13.05236325	      8.24609414	     -2.97847277	     -1.61379813	     -4.20476721	    -13.52673184	    -13.97620258	     11.44761044	      1.86819914	     -4.08806832	     -1.24928192	      0.74169130
      1.41000000	      1.17720876	     -2.35076573	     -4.80912268	     -1.30621613	      0.93503850	     -0.03907595	     -0.38147198	      3.63875557	     -0.79013975	    -13.19666180	      8.40572327	     -3.05054340	     -1.67005639	     -4.19121009	    -13.47743339	    -13.92336479	     11.47491501	      1.85450868	     -4.02505116	     -1.29213371	      0.72269414
      1.42000000	      1.14011635	     -2.29278887	     -4.76268993	     -1.30531408	      0.93483218	     -0.03858311	     -0.32856720	      3.62057330	     -0.81838544	    -13.34966404	      8.57276744	     -3.15243417	     -1.70540235	     -4.15633586	    -13.43460897	    -13.87217700	     11.48496674	      1.85163426	     -3.93825842	     -1.36579990	      0.67098259
      1.43000000	      1.08078246	     -2.22935318	     -4.70881757	     -1.30436459	      0.93459362	     -0.03804654	     -0.25303654	      3.60102090	     -0.85315434	    -13.50630147	      8.72905335	     -3.29167578	     -1.71544771	     -4.12532107	    -13.39583395	    -13.82823166	     11.48806976	      1.86666431	     -3.82350195	     -1.44923514	      0.60811168
      1.44000000	      1.02732624	     -2.17630042	     -4.65919020	     -1.30335193	      0.93436343	     -0.03746032	     -0.18861550	      3.59486273	     -0.88061865	    -13.66267563	      8.88919346	     -3.39031259	     -1.74759994	     -4.10731122	    -13.36191869	    -13.76790090	     11.51234888	      1.90111165	     -3.71516880	     -1.52217057	      0.56157673
      1.45000000	      0.98245096	     -2.13511398	     -4.61879851	     -1.30227384	      0.93414409	     -0.03681218	     -0.13834372	      3.60324789	     -0.90552953	    -13.81861768	      9.04300586	     -3.44976848	     -1.80669662	     -4.10227015	    -13.32560473	    -13.68915885	     11.55173353	      1.93515609	     -3.61620532	     -1.58424308	      0.53830489
      1.46000000	      0.92663685	     -2.07649796	     -4.57933668	     -1.30115171	      0.93390465	     -0.03611992	     -0.06902752	      3.59537856	     -0.93699504	    -13.99210518	      9.21412375	     -3.52809473	     -1.85411506	     -4.08357706	    -13.29634675	    -13.61395376	     11.58088888	      1.98539755	     -3.50554109	     -1.66778781	      0.50133808
      1.47000000	      0.86065786	     -2.01588961	     -4.54419702	     -1.29999082	      0.93364276	     -0.03537463	      0.01212021	      3.58964279	     -0.95990624	    -14.17220091	      9.38411436	     -3.62054263	     -1.88820055	     -4.06735511	    -13.26788673	    -13.55161385	     11.61230850	      2.04470440	     -3.38735388	     -1.75288704	      0.46912373
      1.48000000	      0.76462213	     -1.94506303	     -4.51317422	     -1.29881224	      0.93332776	     -0.03456264	      0.13053356	      3.58060179	     -0.97122412	    -14.36228462	      9.55049041	     -3.76629596	     -1.86995243	     -4.05158947	    -13.25185446	    -13.53221896	     11.63356294	      2.12725253	     -3.23977801	     -1.84979909	      0.42202552
      1.49000000	      0.70749294	     -1.91139251	     -4.49614966	     -1.29756402	      0.93304998	     -0.03367808	      0.19387563	      3.61137831	     -0.96758197	    -14.54120888	      9.70881837	     -3.82462917	     -1.90994491	     -4.07132373	    -13.21246753	    -13.50413171	     11.71276323	      2.16394047	     -3.14440464	     -1.90583989	      0.42813083
      1.50000000	      0.58597282	     -1.84726799	     -4.48002395	     -1.29634129	      0.93265734	     -0.03273028	      0.34669839	      3.61982110	     -0.95429290	    -14.75323937	      9.88504317	     -3.96686667	     -1.83307401	     -4.07819030	    -13.19982148	    -13.56035999	     11.76875139	      2.23156764	     -2.98456238	     -1.99320622	      0.39386678
      1.51000000	      0.52382539	     -1.82880820	     -4.47128671	     -1.29505460	      0.93232421	     -0.03170833	      0.41104504	      3.67655021	     -0.92419990	    -14.93378829	     10.05414885	     -4.02217061	     -1.82256731	     -4.13194505	    -13.15189023	    -13.63261339	     11.88081068	      2.25420934	     -2.90622246	     -2.03214654	      0.40706755
      1.52000000	      0.38253339	     -1.80089717	     -4.46748502	     -1.29382788	      0.93185285	     -0.03060230	      0.58337359	      3.73727910	     -0.87989821	    -15.15077330	     10.19259126	     -4.15577976	     -1.65798983	     -4.20154381	    -13.12261883	    -13.83065123	     11.98824572	      2.28114383	     -2.75335369	     -2.07823004	      0.39578723
      1.53000000	      0.28767872	     -1.80235135	     -4.46728972	     -1.29256473	      0.93141652	     -0.02941898	      0.68554087	      3.82949162	     -0.82965209	    -15.33725478	     10.33473628	     -4.23583485	     -1.51770755	     -4.30919235	    -13.07645586	    -14.08933113	     12.13797999	      2.27839065	     -2.67010592	     -2.09674454	      0.40744565
      1.54000000	      0.19668718	     -1.82824426	     -4.47208635	     -1.29130741	      0.93095261	     -0.02815066	      0.77878006	      3.95324930	     -0.76792216	    -15.51879553	     10.47352660	     -4.30261145	     -1.33239753	     -4.45711670	    -13.01302715	    -14.44633570	     12.30913675	      2.25912586	     -2.60944887	     -2.08953615	      0.42991863
      1.55000000	      0.11041892	     -1.88322098	     -4.47870611	     -1.29006966	      0.93045613	     -0.02679932	      0.86356620	      4.11427165	     -0.69357982	    -15.69808133	     10.60718775	     -4.36187428	     -1.08794061	     -4.65246700	    -12.92868724	    -14.92978770	     12.50463493	      2.22721036	     -2.57646939	     -2.05130385	      0.45729347
      1.56000000	     -0.00461625	     -1.96692156	     -4.49042620	     -1.28891397	      0.92987881	     -0.02535568	      0.99315705	      4.31571368	     -0.59319049	    -15.89852905	     10.70224842	     -4.43593413	     -0.73028832	     -4.89845901	    -12.80238865	    -15.56584835	     12.72438343	      2.18032433	     -2.53942565	     -1.98085675	      0.47082130
      1.57000000	     -0.10882382	     -2.08597559	     -4.49800562	     -1.28777229	      0.92926214	     -0.02383331	      1.09777385	      4.55888623	     -0.50700800	    -16.07753154	     10.81141763	     -4.50568052	     -0.30106989	     -5.19674983	    -12.62178086	    -16.36463216	     12.97389886	      2.13001963	     -2.53448310	     -1.87822938	      0.52147520
      1.58000000	     -0.18930818	     -2.26086143	     -4.50833412	     -1.28669226	      0.92861212	     -0.02223548	      1.17819501	      4.86522857	     -0.41467421	    -16.25973515	     10.87557448	     -4.57467106	      0.18348336	     -5.56371009	    -12.36484689	    -17.32162698	     13.30030123	      2.07727221	     -2.58985912	     -1.71228464	      0.57644220
      1.59000000	     -0.26790537	     -2.47254967	     -4.50990404	     -1.28564786	      0.92789540	     -0.02059679	      1.25140699	      5.21473710	     -0.33129658	    -16.43562979	     10.94661040	     -4.66437985	      0.76328395	     -5.97945020	    -12.03126230	    -18.46116174	     13.64210086	      2.01374902	     -2.66983497	     -1.50662057	      0.65036226
      1.60000000	     -0.33379418	     -2.72116721	     -4.50491026	     -1.28465089	      0.92711788	     -0.01890182	      1.30989629	      5.60942130	     -0.25461275	    -16.61091792	     11.01423024	     -4.78202337	      1.42117249	     -6.43948813	    -11.61663378	    -19.77049001	     13.99058300	      1.93761507	     -2.78935118	     -1.26645750	      0.73439626
      1.61000000	     -0.37610584	     -3.00348658	     -4.49125126	     -1.28368123	      0.92629201	     -0.01719113	      1.33945271	      6.04110102	     -0.18978080	    -16.78297196	     11.08768827	     -4.93045085	      2.14586278	     -6.93327019	    -11.11717500	    -21.25136377	     14.32761920	      1.85136729	     -2.95732927	     -0.99045641	      0.83442803
